<svg width="201" height="141" viewBox="0 0 201 141" fill="none" xmlns="http://www.w3.org/2000/svg">
<g opacity="0.65">
<path d="M100.286 84.3425C49.4753 84.3425 8.28552 105.536 8.28552 131.678C8.28552 134.638 8.81333 137.534 9.82315 140.343H190.748C191.758 137.534 192.286 134.638 192.286 131.678C192.286 105.536 151.096 84.3425 100.286 84.3425Z" fill="url(#paint0_linear_165_2504)"/>
<path opacity="0.45" d="M59.2523 97.2559L137.867 93.9998L174.663 130.902L93.7523 139.5L59.2523 97.2559Z" fill="url(#paint1_linear_165_2504)"/>
<path d="M59.0825 94.9944H96.0784V45.8464L59.0825 55.5538V94.9944Z" fill="url(#paint2_linear_165_2504)"/>
<path d="M140.709 78.47H96.0765V45.8467L140.709 56.0417V78.47Z" fill="url(#paint3_linear_165_2504)"/>
<path d="M59.082 55.5542L46.244 70.8499L59.082 76.5879V55.5542Z" fill="url(#paint4_linear_165_2504)"/>
<path d="M102.733 115.021L59.0825 97.316V55.5542L102.733 66.666V115.021Z" fill="url(#paint5_linear_165_2504)"/>
<path d="M102.732 115.022L140.71 96.7064V56.0435L102.732 66.6676V115.022Z" fill="url(#paint6_linear_165_2504)"/>
<path d="M140.71 56.0435L153.571 73.2605L116.328 88.0361L102.732 66.6676L140.71 56.0435Z" fill="url(#paint7_linear_165_2504)"/>
<path d="M59.0813 55.5542L47.5404 74.8454L92.8425 89.8063L102.732 66.666L59.0813 55.5542Z" fill="url(#paint8_linear_165_2504)"/>
<path d="M125.371 16.7297C125.244 16.7297 125.123 16.6686 125.071 16.5677C125 16.4322 125.078 16.2756 125.241 16.2198C125.638 16.0817 125.853 16.0127 125.853 16.0127C126.023 15.9595 126.208 16.0259 126.274 16.164C126.339 16.2995 126.257 16.4535 126.088 16.5066C126.085 16.5066 125.879 16.573 125.498 16.7058C125.456 16.7244 125.413 16.7297 125.371 16.7297Z" fill="url(#paint9_linear_165_2504)"/>
<path d="M102.978 64.3384C102.848 64.3384 102.721 64.2722 102.672 64.1662C102.516 63.8244 102.393 63.4667 102.305 63.1037C102.272 62.9606 102.386 62.8202 102.562 62.7937C102.737 62.7645 102.909 62.8599 102.942 63.003C103.02 63.3369 103.134 63.6654 103.28 63.9781C103.342 64.1158 103.257 64.2669 103.091 64.3199C103.056 64.3331 103.017 64.3384 102.978 64.3384ZM107.34 62.3009C107.337 62.3009 107.334 62.3009 107.334 62.3009C106.889 62.2929 106.443 62.2691 106.011 62.232C105.832 62.2161 105.702 62.0862 105.721 61.9405C105.741 61.7948 105.9 61.6888 106.079 61.7047C106.495 61.7418 106.921 61.763 107.35 61.7709C107.529 61.7736 107.672 61.8955 107.669 62.0412C107.662 62.1869 107.516 62.3009 107.34 62.3009ZM108.641 62.285C108.469 62.285 108.326 62.1763 108.316 62.0332C108.306 61.8875 108.443 61.763 108.621 61.755C109.041 61.7365 109.467 61.7047 109.892 61.6596C110.071 61.6411 110.234 61.7444 110.257 61.8902C110.279 62.0359 110.153 62.1684 109.974 62.1869C109.532 62.232 109.089 62.2664 108.654 62.285C108.654 62.285 108.647 62.285 108.641 62.285ZM102.487 62.2664C102.311 62.2664 102.168 62.1525 102.162 62.0094C102.158 61.9485 102.158 61.8849 102.158 61.8213C102.158 61.7047 102.162 61.5881 102.168 61.4715C102.162 61.4689 102.158 61.4689 102.152 61.4662C101.736 61.3417 101.326 61.2039 100.93 61.0608C100.767 60.9999 100.692 60.8436 100.764 60.7111C100.839 60.5786 101.03 60.5177 101.193 60.576C101.528 60.6978 101.876 60.8144 102.227 60.9231C102.227 60.9178 102.227 60.9151 102.23 60.9098C102.253 60.7641 102.415 60.6634 102.594 60.6793C102.773 60.6978 102.9 60.8303 102.877 60.976C102.831 61.2596 102.812 61.5431 102.812 61.8213C102.812 61.8796 102.812 61.9379 102.815 61.9935C102.818 62.1392 102.679 62.2611 102.5 62.2664C102.493 62.2664 102.49 62.2664 102.487 62.2664ZM104.759 62.073C104.736 62.073 104.717 62.0703 104.694 62.0677C104.337 62.0094 103.982 61.9405 103.641 61.861L103.404 61.8054C103.231 61.763 103.134 61.6173 103.186 61.4768C103.238 61.3364 103.417 61.2569 103.589 61.2993L103.816 61.3549C104.142 61.4318 104.48 61.498 104.821 61.5537C104.997 61.5828 105.11 61.7232 105.075 61.8663C105.045 61.9882 104.912 62.073 104.759 62.073ZM111.222 62.0173C111.069 62.0173 110.933 61.9299 110.904 61.8027C110.868 61.6596 110.982 61.5192 111.16 61.4901C111.576 61.4238 111.993 61.3443 112.405 61.2543C112.578 61.2172 112.757 61.2993 112.805 61.4424C112.854 61.5855 112.75 61.7285 112.575 61.7683C112.149 61.861 111.716 61.9431 111.287 62.012C111.264 62.0147 111.242 62.0173 111.222 62.0173ZM113.732 61.4689C113.595 61.4689 113.469 61.4 113.423 61.2887C113.364 61.1509 113.456 60.9999 113.625 60.9522C114.028 60.8409 114.431 60.7164 114.821 60.5839C114.987 60.5283 115.179 60.5919 115.247 60.727C115.315 60.8621 115.237 61.0184 115.071 61.0741C114.668 61.2119 114.252 61.339 113.836 61.4556C113.803 61.4636 113.768 61.4689 113.732 61.4689ZM116.131 60.6528C116.011 60.6528 115.897 60.5998 115.842 60.5071C115.76 60.3772 115.825 60.2183 115.985 60.152C116.372 59.993 116.745 59.8235 117.1 59.6486C117.253 59.5718 117.454 59.6141 117.545 59.7387C117.636 59.8632 117.587 60.0275 117.435 60.1017C117.064 60.2845 116.674 60.4594 116.274 60.6236C116.229 60.6422 116.18 60.6528 116.131 60.6528ZM99.8958 60.6184C99.8438 60.6184 99.7918 60.6078 99.743 60.5866C99.3529 60.417 98.9693 60.2342 98.5987 60.0434C98.4459 59.9665 98.4003 59.8023 98.4979 59.6777C98.5922 59.5532 98.7937 59.5161 98.9465 59.5956C99.3009 59.7784 99.6747 59.9559 100.049 60.1176C100.208 60.1865 100.266 60.3481 100.182 60.4753C100.123 60.568 100.01 60.6184 99.8958 60.6184ZM102.805 60.1706C102.776 60.1706 102.75 60.1679 102.721 60.1626C102.549 60.1255 102.445 59.9798 102.49 59.8367C102.604 59.4949 102.747 59.1478 102.919 58.8034C102.987 58.6682 103.176 58.602 103.342 58.6576C103.508 58.7133 103.589 58.867 103.521 59.0021C103.361 59.3253 103.225 59.6539 103.117 59.9745C103.082 60.0911 102.948 60.1706 102.805 60.1706ZM118.351 59.5506C118.251 59.5506 118.153 59.5135 118.091 59.4419C117.984 59.3253 118.017 59.1584 118.16 59.071C118.514 58.859 118.839 58.6364 119.132 58.4139C119.262 58.3132 119.47 58.3185 119.59 58.4245C119.714 58.5305 119.707 58.7 119.577 58.7981C119.268 59.0339 118.92 59.2697 118.547 59.4949C118.485 59.5347 118.416 59.5506 118.351 59.5506ZM97.6981 59.487C97.6299 59.487 97.5616 59.4711 97.5063 59.434C97.152 59.2194 96.8041 58.9941 96.4725 58.7583C96.336 58.6629 96.323 58.496 96.44 58.3847C96.5571 58.2734 96.7619 58.2628 96.8984 58.3582C97.217 58.5834 97.5519 58.8034 97.8932 59.0074C98.0362 59.0948 98.0688 59.2617 97.9615 59.3783C97.8965 59.4499 97.7989 59.487 97.6981 59.487ZM103.771 58.2072C103.719 58.2072 103.667 58.1966 103.618 58.1754C103.459 58.1065 103.4 57.9475 103.485 57.8177C103.69 57.5051 103.924 57.1924 104.184 56.8877C104.285 56.7685 104.489 56.7367 104.636 56.8214C104.782 56.9036 104.821 57.0705 104.717 57.1898C104.473 57.4759 104.252 57.7727 104.06 58.0668C103.998 58.1569 103.888 58.2072 103.771 58.2072ZM95.7378 58.1012C95.6533 58.1012 95.572 58.0747 95.507 58.0217C95.1982 57.7674 94.8958 57.4998 94.6097 57.2268C94.4927 57.1156 94.509 56.9486 94.6455 56.8532C94.782 56.7579 94.9868 56.7711 95.1039 56.8824C95.3802 57.1447 95.6696 57.4017 95.9654 57.6481C96.0922 57.7515 96.0922 57.921 95.9621 58.0217C95.9036 58.0747 95.8191 58.1012 95.7378 58.1012ZM120.224 58.0906C120.156 58.0906 120.087 58.0721 120.026 58.0376C119.883 57.9502 119.857 57.7833 119.964 57.6667C120.003 57.6243 120.042 57.5819 120.081 57.5368C120.292 57.2931 120.484 57.0493 120.65 56.8082C120.738 56.681 120.936 56.636 121.092 56.7075C121.248 56.7791 121.303 56.9407 121.216 57.0679C121.04 57.3249 120.835 57.5845 120.611 57.8442C120.569 57.8919 120.526 57.9396 120.481 57.9873C120.419 58.0562 120.322 58.0906 120.224 58.0906ZM94.0538 56.4902C93.953 56.4902 93.8555 56.4532 93.7905 56.3816C93.5337 56.0928 93.2834 55.7934 93.0493 55.4887C92.955 55.3642 93.0005 55.1999 93.1533 55.123C93.3061 55.0462 93.5077 55.0833 93.6019 55.2078C93.8263 55.5019 94.0668 55.7908 94.3172 56.069C94.4244 56.1882 94.3919 56.3525 94.2456 56.4399C94.1871 56.4743 94.1188 56.4902 94.0538 56.4902ZM105.244 56.4664C105.169 56.4664 105.094 56.4452 105.032 56.4028C104.896 56.3074 104.88 56.1405 104.997 56.0292C105.279 55.7616 105.585 55.4966 105.91 55.2396C106.04 55.1389 106.245 55.139 106.368 55.2449C106.492 55.3509 106.492 55.5178 106.362 55.6185C106.053 55.8623 105.761 56.1167 105.491 56.371C105.429 56.4346 105.338 56.4664 105.244 56.4664ZM121.476 56.2412C121.44 56.2412 121.404 56.2359 121.368 56.2253C121.199 56.1776 121.112 56.0239 121.17 55.8861C121.316 55.5523 121.407 55.229 121.446 54.919C121.463 54.7733 121.622 54.6673 121.801 54.6806C121.98 54.6938 122.11 54.8236 122.093 54.9694C122.051 55.3218 121.947 55.6874 121.784 56.061C121.736 56.1749 121.609 56.2412 121.476 56.2412ZM107.106 54.9879C107.012 54.9879 106.921 54.9561 106.856 54.8925C106.742 54.7786 106.762 54.6117 106.898 54.5189C107.233 54.2937 107.588 54.0738 107.952 53.8618C108.098 53.7771 108.3 53.8062 108.404 53.9254C108.508 54.0447 108.472 54.2089 108.326 54.2937C107.974 54.4977 107.633 54.7097 107.311 54.927C107.253 54.9694 107.178 54.9879 107.106 54.9879ZM92.6787 54.6938C92.5616 54.6938 92.4479 54.6435 92.3893 54.5534C92.1845 54.2381 91.9927 53.9095 91.8139 53.5836C91.7424 53.4485 91.8172 53.2922 91.9797 53.2339C92.1455 53.1756 92.3373 53.2365 92.4088 53.369C92.5811 53.687 92.7664 54.0023 92.9648 54.307C93.0493 54.4368 92.9875 54.5958 92.8282 54.6647C92.7794 54.6832 92.7274 54.6938 92.6787 54.6938ZM121.69 54.1586C121.544 54.1586 121.411 54.0765 121.375 53.9546C121.284 53.6419 121.118 53.3505 120.89 53.0908C120.786 52.9716 120.819 52.8073 120.965 52.7199C121.112 52.6351 121.313 52.6616 121.42 52.7808C121.7 53.0987 121.898 53.4511 122.009 53.83C122.051 53.9731 121.944 54.1162 121.768 54.1506C121.739 54.1559 121.713 54.1586 121.69 54.1586ZM109.226 53.7612C109.115 53.7612 109.008 53.7161 108.95 53.634C108.855 53.5094 108.904 53.3452 109.057 53.271C109.431 53.0855 109.818 52.9053 110.208 52.7384C110.367 52.6695 110.562 52.7199 110.647 52.8497C110.731 52.9795 110.669 53.1385 110.51 53.2074C110.133 53.369 109.759 53.5412 109.398 53.7214C109.343 53.7479 109.285 53.7612 109.226 53.7612ZM111.528 52.7755C111.404 52.7755 111.284 52.7172 111.232 52.6192C111.16 52.4867 111.232 52.3277 111.398 52.2694C111.804 52.1237 112.217 51.9859 112.623 51.8667C112.792 51.8163 112.978 51.8879 113.039 52.0257C113.101 52.1634 113.013 52.3145 112.844 52.3648C112.451 52.4814 112.051 52.6139 111.658 52.7543C111.615 52.7675 111.573 52.7755 111.528 52.7755ZM91.6286 52.7543C91.4953 52.7543 91.3718 52.6881 91.323 52.5794C91.1735 52.2429 91.0369 51.8985 90.9167 51.554C90.8679 51.4136 90.9687 51.2679 91.141 51.2255C91.3133 51.1857 91.4921 51.2679 91.5441 51.4083C91.6611 51.7421 91.7912 52.076 91.9342 52.3992C91.996 52.537 91.9082 52.6881 91.7391 52.7384C91.7034 52.7516 91.6644 52.7543 91.6286 52.7543ZM120.224 52.4655C120.159 52.4655 120.094 52.4496 120.035 52.4178C119.723 52.2376 119.363 52.0813 118.959 51.9515C118.794 51.8985 118.709 51.7448 118.777 51.607C118.842 51.4719 119.031 51.403 119.2 51.4586C119.652 51.6044 120.061 51.7792 120.413 51.9833C120.559 52.0681 120.595 52.2323 120.491 52.3516C120.429 52.4257 120.328 52.4655 120.224 52.4655ZM113.972 52.0521C113.829 52.0521 113.699 51.9753 113.66 51.8587C113.612 51.7183 113.712 51.5726 113.885 51.5328C114.327 51.4321 114.762 51.35 115.179 51.2864C115.354 51.2599 115.523 51.3553 115.559 51.4984C115.591 51.6415 115.474 51.7792 115.299 51.8084C114.899 51.8693 114.483 51.9488 114.06 52.0442C114.031 52.0495 114.002 52.0521 113.972 52.0521ZM117.828 51.6998C117.815 51.6998 117.802 51.6997 117.789 51.6971C117.558 51.6733 117.311 51.6627 117.051 51.6627C116.895 51.6574 116.723 51.668 116.55 51.6759C116.372 51.6839 116.216 51.5752 116.206 51.4268C116.196 51.2811 116.329 51.1539 116.511 51.146C116.697 51.1354 116.876 51.1327 117.051 51.1327C117.051 51.1327 117.051 51.1327 117.054 51.1327C117.34 51.1327 117.613 51.146 117.87 51.1725C118.049 51.191 118.176 51.3235 118.153 51.4666C118.13 51.6017 117.987 51.6998 117.828 51.6998ZM90.9167 50.7167C90.7671 50.7167 90.6306 50.632 90.5981 50.5074C90.507 50.155 90.429 49.8 90.3705 49.4449C90.3445 49.2992 90.468 49.1667 90.6468 49.1455C90.8256 49.1243 90.9882 49.225 91.0142 49.3707C91.0727 49.7125 91.1475 50.057 91.2352 50.3961C91.271 50.5392 91.1605 50.6796 90.9849 50.7114C90.9622 50.7167 90.9394 50.7167 90.9167 50.7167ZM90.5591 48.6183C90.39 48.6183 90.247 48.5123 90.234 48.3718C90.2079 48.0486 90.1949 47.7253 90.1949 47.4074V47.2908C90.1949 47.1451 90.3445 47.0205 90.5233 47.0285C90.7021 47.0285 90.8484 47.1504 90.8451 47.2961V47.4074C90.8451 47.7121 90.8581 48.0247 90.8841 48.3347C90.8972 48.4805 90.7606 48.6077 90.5818 48.6183C90.5721 48.6183 90.5656 48.6183 90.5591 48.6183ZM90.5851 46.5012C90.5753 46.5012 90.5656 46.5012 90.5558 46.5012C90.377 46.488 90.2437 46.3581 90.26 46.2124C90.2957 45.8812 90.351 45.5526 90.4193 45.24L90.4323 45.1976L90.4745 45.1022C90.533 44.9644 90.7183 44.8929 90.8874 44.9406C91.0564 44.9883 91.1475 45.1393 91.0857 45.2771L91.0532 45.3513C90.9947 45.6295 90.9427 45.9421 90.9069 46.2574C90.8907 46.3979 90.7509 46.5012 90.5851 46.5012ZM91.2255 44.461C91.1865 44.461 91.1475 44.4557 91.1085 44.4425C90.9394 44.3895 90.8549 44.2384 90.9199 44.1007C91.0759 43.7668 91.2352 43.4356 91.401 43.1097C91.4693 42.9746 91.6579 42.9083 91.8237 42.964C91.9895 43.0196 92.0707 43.1733 92.0025 43.3084C91.8399 43.6317 91.6806 43.9576 91.5278 44.2888C91.4791 44.3948 91.3555 44.461 91.2255 44.461ZM92.2105 42.5003C92.1683 42.5003 92.1228 42.4923 92.0805 42.4791C91.9147 42.4208 91.8432 42.2645 91.9147 42.1293C92.0902 41.8034 92.2723 41.4802 92.4576 41.1596C92.5356 41.0271 92.7274 40.9715 92.89 41.0324C93.0525 41.096 93.1208 41.2523 93.046 41.3848C92.864 41.7001 92.6852 42.0207 92.5096 42.344C92.4544 42.442 92.3373 42.5003 92.2105 42.5003ZM93.3191 40.5846C93.2703 40.5846 93.2216 40.5767 93.1728 40.5555C93.0135 40.4892 92.9485 40.3303 93.0298 40.2004C93.2248 39.8825 93.4264 39.5672 93.6312 39.2545C93.7157 39.1247 93.914 39.077 94.0701 39.1459C94.2294 39.2148 94.2879 39.3764 94.2034 39.5036C94.0018 39.8109 93.8035 40.1236 93.6084 40.4389C93.5532 40.529 93.4394 40.5846 93.3191 40.5846ZM94.5447 38.714C94.4894 38.714 94.4342 38.7034 94.3854 38.6796C94.2294 38.608 94.1741 38.4464 94.2619 38.3192C94.4764 38.0092 94.6975 37.7018 94.9218 37.3971C95.0129 37.2726 95.2144 37.2302 95.3672 37.3071C95.52 37.3812 95.572 37.5455 95.4777 37.67C95.2567 37.9695 95.0389 38.2742 94.8276 38.5789C94.769 38.6663 94.6585 38.714 94.5447 38.714ZM95.8809 36.8964C95.8223 36.8964 95.7606 36.8831 95.7086 36.854C95.5558 36.7745 95.5103 36.6129 95.6078 36.4883C95.8419 36.1863 96.0792 35.8895 96.3197 35.5954C96.4205 35.4735 96.6221 35.4417 96.7716 35.5212C96.9212 35.6034 96.9602 35.7676 96.8626 35.8895C96.6253 36.181 96.3913 36.4751 96.1572 36.7718C96.0954 36.854 95.9881 36.8964 95.8809 36.8964ZM97.3243 35.1344C97.2593 35.1344 97.1942 35.1185 97.139 35.0867C96.9927 35.0019 96.9569 34.8376 97.061 34.7184C97.3113 34.4269 97.5681 34.1381 97.8249 33.852C97.9322 33.7327 98.1338 33.7089 98.2801 33.7963C98.4231 33.8838 98.4556 34.048 98.3483 34.1673C98.0948 34.4481 97.8412 34.7343 97.5941 35.0231C97.5258 35.0946 97.4251 35.1344 97.3243 35.1344ZM98.8652 33.4254C98.797 33.4254 98.7255 33.4068 98.6669 33.3697C98.5239 33.2796 98.4979 33.1127 98.6084 32.9988C98.875 32.7153 99.1448 32.4371 99.4179 32.1615C99.5317 32.0476 99.7365 32.029 99.8763 32.1218C100.016 32.2145 100.039 32.3814 99.9251 32.4954C99.6552 32.7683 99.3886 33.0438 99.1221 33.322C99.0603 33.3909 98.9628 33.4254 98.8652 33.4254ZM100.5 31.7773C100.426 31.7773 100.351 31.7561 100.292 31.7137C100.156 31.6183 100.136 31.4514 100.253 31.3401C100.536 31.0672 100.822 30.7996 101.108 30.5346C101.225 30.426 101.433 30.4154 101.567 30.5108C101.7 30.6088 101.713 30.7758 101.596 30.8844C101.313 31.1467 101.03 31.4117 100.751 31.6819C100.683 31.7455 100.591 31.7773 100.5 31.7773ZM102.22 30.1875C102.142 30.1875 102.064 30.1637 101.999 30.1187C101.866 30.0206 101.859 29.851 101.98 29.7451C102.275 29.4827 102.575 29.2231 102.874 28.9687C102.997 28.8627 103.205 28.8601 103.332 28.9608C103.462 29.0615 103.465 29.231 103.342 29.3344C103.046 29.5861 102.75 29.8431 102.454 30.1028C102.396 30.1584 102.308 30.1875 102.22 30.1875ZM104.021 28.6587C103.937 28.6587 103.855 28.6322 103.79 28.5819C103.664 28.4785 103.664 28.3116 103.79 28.2083C104.099 27.9566 104.411 27.7075 104.723 27.4611C104.854 27.3604 105.058 27.3631 105.182 27.469C105.305 27.575 105.302 27.742 105.172 27.8426C104.863 28.0838 104.554 28.3302 104.249 28.5819C104.187 28.6322 104.106 28.6587 104.021 28.6587ZM105.897 27.1882C105.809 27.1882 105.721 27.159 105.66 27.1034C105.539 26.9948 105.546 26.8278 105.679 26.7298C106.001 26.486 106.323 26.2476 106.648 26.0144C106.781 25.9164 106.986 25.927 107.106 26.0356C107.227 26.1442 107.214 26.3112 107.08 26.4092C106.762 26.6424 106.44 26.8782 106.121 27.1193C106.053 27.1643 105.975 27.1882 105.897 27.1882ZM107.841 25.7786C107.75 25.7786 107.659 25.7468 107.594 25.6859C107.477 25.5746 107.493 25.4076 107.63 25.3123C107.965 25.0791 108.296 24.8512 108.631 24.626C108.771 24.5333 108.976 24.5492 109.089 24.6631C109.203 24.777 109.184 24.944 109.044 25.0367C108.716 25.2593 108.384 25.4845 108.052 25.715C107.991 25.7574 107.916 25.7786 107.841 25.7786ZM109.847 24.4299C109.753 24.4299 109.655 24.3955 109.593 24.3293C109.483 24.2153 109.506 24.0484 109.645 23.9557C109.99 23.7331 110.335 23.5132 110.676 23.3012C110.819 23.2111 111.024 23.235 111.131 23.3515C111.242 23.4681 111.212 23.6351 111.069 23.7225C110.731 23.9345 110.39 24.1491 110.049 24.3716C109.99 24.4114 109.918 24.4299 109.847 24.4299ZM111.915 23.1396C111.814 23.1396 111.716 23.1025 111.651 23.0309C111.544 22.9144 111.576 22.7474 111.72 22.66C112.074 22.4454 112.428 22.2387 112.779 22.0347C112.926 21.9499 113.127 21.979 113.231 22.0983C113.335 22.2175 113.299 22.3818 113.153 22.4666C112.805 22.6679 112.457 22.8746 112.103 23.0866C112.048 23.1237 111.98 23.1396 111.915 23.1396ZM114.034 21.9128C113.93 21.9128 113.829 21.8731 113.764 21.7989C113.664 21.677 113.699 21.5127 113.849 21.4306C114.216 21.2266 114.577 21.0278 114.935 20.8371C115.084 20.7576 115.286 20.7894 115.387 20.9112C115.484 21.0331 115.445 21.1974 115.296 21.2795C114.941 21.4703 114.584 21.6664 114.219 21.8678C114.161 21.8969 114.096 21.9128 114.034 21.9128ZM116.206 20.7443C116.099 20.7443 115.995 20.7019 115.933 20.6224C115.835 20.4979 115.881 20.3363 116.034 20.2568C116.411 20.0607 116.781 19.8753 117.142 19.6924C117.295 19.6156 117.496 19.6553 117.587 19.7799C117.682 19.9044 117.633 20.0687 117.48 20.1429C117.119 20.323 116.755 20.5085 116.381 20.7019C116.326 20.7311 116.264 20.7443 116.206 20.7443ZM118.426 19.6368C118.316 19.6368 118.205 19.5891 118.147 19.507C118.056 19.3798 118.108 19.2181 118.26 19.144C118.647 18.9585 119.028 18.781 119.392 18.6114C119.548 18.5398 119.746 18.5849 119.834 18.7121C119.922 18.8393 119.866 19.0009 119.71 19.0724C119.346 19.2393 118.972 19.4142 118.589 19.5997C118.54 19.6235 118.482 19.6368 118.426 19.6368ZM120.695 18.5928C120.578 18.5928 120.468 18.5425 120.409 18.4551C120.325 18.3252 120.383 18.1663 120.539 18.0947C120.942 17.9172 121.329 17.7503 121.697 17.5966C121.856 17.5303 122.051 17.5807 122.136 17.7105C122.217 17.8404 122.155 17.9993 121.996 18.0682C121.632 18.2219 121.251 18.3862 120.851 18.561C120.799 18.5822 120.747 18.5928 120.695 18.5928ZM123.007 17.6178C122.887 17.6178 122.773 17.5621 122.714 17.4694C122.636 17.3369 122.701 17.1806 122.864 17.1144C123.299 16.9395 123.696 16.7858 124.047 16.6533C124.21 16.5924 124.405 16.6507 124.48 16.7832C124.554 16.9156 124.483 17.0746 124.32 17.1356C123.976 17.2654 123.582 17.4191 123.15 17.5913C123.104 17.6098 123.056 17.6178 123.007 17.6178Z" fill="url(#paint10_linear_165_2504)"/>
<path d="M103.92 65.737C103.828 65.737 103.737 65.7051 103.671 65.6438C103.665 65.6358 103.491 65.4733 103.266 65.1722C103.171 65.047 103.22 64.8818 103.374 64.8072C103.527 64.73 103.73 64.7699 103.822 64.8952C104.014 65.1536 104.162 65.2948 104.162 65.2948C104.279 65.4067 104.263 65.5745 104.126 65.6704C104.073 65.7157 103.995 65.737 103.92 65.737Z" fill="url(#paint11_linear_165_2504)"/>
<path d="M121.158 6.56354L145.836 2.44458L138.128 16.9959L121.158 6.56354Z" fill="url(#paint12_linear_165_2504)"/>
<path d="M139.861 5.95703L130.567 12.1241L129.364 16.9973L127.609 10.5279L139.861 5.95703Z" fill="url(#paint13_linear_165_2504)"/>
<path d="M133.84 14.3581L129.363 16.9946L130.495 12.0662L133.84 14.3581Z" fill="#B4C6D9"/>
</g>
<defs>
<linearGradient id="paint0_linear_165_2504" x1="100.286" y1="152.383" x2="100.285" y2="84.3413" gradientUnits="userSpaceOnUse">
<stop offset="0.176955" stop-color="white" stop-opacity="0"/>
<stop offset="1" stop-color="#F1F4F9"/>
</linearGradient>
<linearGradient id="paint1_linear_165_2504" x1="136.298" y1="142.452" x2="133.558" y2="101.463" gradientUnits="userSpaceOnUse">
<stop offset="0.1022" stop-color="white" stop-opacity="0"/>
<stop offset="0.673008" stop-color="#E5EBF3"/>
<stop offset="1" stop-color="#C9D5E6"/>
</linearGradient>
<linearGradient id="paint2_linear_165_2504" x1="59.0815" y1="70.4201" x2="96.0796" y2="70.4201" gradientUnits="userSpaceOnUse">
<stop offset="5.30912e-07" stop-color="#E5ECF3"/>
<stop offset="1" stop-color="#BECFE0"/>
</linearGradient>
<linearGradient id="paint3_linear_165_2504" x1="96.0778" y1="62.1579" x2="140.708" y2="62.1579" gradientUnits="userSpaceOnUse">
<stop stop-color="#D9E3ED"/>
<stop offset="1" stop-color="#ACC2DB"/>
</linearGradient>
<linearGradient id="paint4_linear_165_2504" x1="52.6625" y1="76.5869" x2="52.6625" y2="55.5541" gradientUnits="userSpaceOnUse">
<stop stop-color="#EFF3F9"/>
<stop offset="0.9705" stop-color="#9CB6D2"/>
</linearGradient>
<linearGradient id="paint5_linear_165_2504" x1="59.0815" y1="85.287" x2="102.734" y2="85.287" gradientUnits="userSpaceOnUse">
<stop stop-color="#EFF3F9"/>
<stop offset="1" stop-color="#B4C7DC"/>
</linearGradient>
<linearGradient id="paint6_linear_165_2504" x1="94.1647" y1="104.809" x2="145.49" y2="61.7422" gradientUnits="userSpaceOnUse">
<stop stop-color="#EFF3F9"/>
<stop offset="0.9705" stop-color="#9CB6D2"/>
</linearGradient>
<linearGradient id="paint7_linear_165_2504" x1="102.734" y1="72.04" x2="153.571" y2="72.04" gradientUnits="userSpaceOnUse">
<stop stop-color="#D5E0EE"/>
<stop offset="1" stop-color="#F5F9FA"/>
</linearGradient>
<linearGradient id="paint8_linear_165_2504" x1="47.5413" y1="72.6795" x2="102.733" y2="72.6795" gradientUnits="userSpaceOnUse">
<stop offset="4.42426e-07" stop-color="#F7FAFB"/>
<stop offset="1" stop-color="#D5E0EE"/>
</linearGradient>
<linearGradient id="paint9_linear_165_2504" x1="125.67" y1="65.85" x2="125.67" y2="15.9961" gradientUnits="userSpaceOnUse">
<stop offset="5.35827e-07" stop-color="#F3F6F9"/>
<stop offset="1" stop-color="#D0DAE8"/>
</linearGradient>
<linearGradient id="paint10_linear_165_2504" x1="107.352" y1="65.2289" x2="107.352" y2="16.002" gradientUnits="userSpaceOnUse">
<stop offset="5.35827e-07" stop-color="#F3F6F9"/>
<stop offset="1" stop-color="#D0DAE8"/>
</linearGradient>
<linearGradient id="paint11_linear_165_2504" x1="103.734" y1="65.7367" x2="103.734" y2="15.733" gradientUnits="userSpaceOnUse">
<stop offset="5.35827e-07" stop-color="#F3F6F9"/>
<stop offset="1" stop-color="#D0DAE8"/>
</linearGradient>
<linearGradient id="paint12_linear_165_2504" x1="121.16" y1="9.72168" x2="145.835" y2="9.72168" gradientUnits="userSpaceOnUse">
<stop stop-color="#F3F6F9"/>
<stop offset="1" stop-color="#B5C6D8"/>
</linearGradient>
<linearGradient id="paint13_linear_165_2504" x1="133.734" y1="16.9989" x2="133.734" y2="5.95745" gradientUnits="userSpaceOnUse">
<stop stop-color="#D5E0EE"/>
<stop offset="1" stop-color="#F5F9FA"/>
</linearGradient>
</defs>
</svg>
